<mxfile host="app.diagrams.net" agent="Mozilla/5.0 (X11; Linux x86_64) AppleWebKit/537.36 (KHTML, like Gecko) Chrome/135.0.0.0 Safari/537.36" version="27.2.0">
  <diagram name="Page-1" id="WW6_rK8IoDx_llFJTD2D">
    <mxGraphModel dx="1356" dy="798" grid="1" gridSize="10" guides="1" tooltips="1" connect="1" arrows="1" fold="1" page="1" pageScale="1" pageWidth="850" pageHeight="1100" math="0" shadow="0">
      <root>
        <mxCell id="0" />
        <mxCell id="1" parent="0" />
        <mxCell id="2Zoo_7kJSfG-MeWrc9BH-1" value="&lt;font style=&quot;font-size: 15px;&quot;&gt;backup-service&lt;br&gt;&lt;/font&gt;&lt;font style=&quot;font-size: 15px; color: rgb(51, 51, 255);&quot;&gt;$14.00&lt;br&gt;&lt;br&gt;&lt;span style=&quot;color: rgb(0, 0, 0);&quot;&gt;CPU - 1&lt;/span&gt;&lt;br style=&quot;color: rgb(0, 0, 0);&quot;&gt;&lt;span style=&quot;color: rgb(0, 0, 0);&quot;&gt;MEMORY - 2GB&lt;/span&gt;&lt;br style=&quot;color: rgb(0, 0, 0);&quot;&gt;&lt;span style=&quot;color: rgb(0, 0, 0);&quot;&gt;SSD-50&lt;/span&gt;&lt;/font&gt;" style="html=1;whiteSpace=wrap;fillColor=#d5e8d4;strokeColor=#82b366;" vertex="1" parent="1">
          <mxGeometry x="60" y="47.5" width="170" height="160" as="geometry" />
        </mxCell>
        <mxCell id="2Zoo_7kJSfG-MeWrc9BH-2" value="&lt;font style=&quot;font-size: 15px;&quot;&gt;mail.orcatec.com&lt;br&gt;&lt;/font&gt;&lt;span style=&quot;color: rgb(51, 51, 255); font-size: 15px;&quot;&gt;$14.00&lt;br&gt;&lt;br&gt;&lt;span style=&quot;color: rgb(0, 0, 0);&quot;&gt;CPU - 1&lt;/span&gt;&lt;br style=&quot;color: rgb(0, 0, 0);&quot;&gt;&lt;span style=&quot;color: rgb(0, 0, 0);&quot;&gt;MEMORY - 2GB&lt;/span&gt;&lt;br style=&quot;color: rgb(0, 0, 0);&quot;&gt;&lt;span style=&quot;color: rgb(0, 0, 0);&quot;&gt;SSD-50&lt;/span&gt;&lt;/span&gt;" style="html=1;whiteSpace=wrap;fillColor=#d5e8d4;strokeColor=#82b366;" vertex="1" parent="1">
          <mxGeometry x="590" y="47.5" width="170" height="160" as="geometry" />
        </mxCell>
        <mxCell id="2Zoo_7kJSfG-MeWrc9BH-3" value="&lt;font style=&quot;font-size: 15px;&quot;&gt;&lt;font color=&quot;#ff6666&quot;&gt;&lt;b&gt;DEV&lt;/b&gt;&lt;/font&gt;&lt;br&gt;orcatec-dev&lt;br&gt;&lt;/font&gt;&lt;span style=&quot;color: rgb(51, 51, 255); font-size: 15px;&quot;&gt;$84.00&lt;br&gt;&lt;br&gt;&lt;span style=&quot;color: rgb(0, 0, 0);&quot;&gt;CPU - 2&lt;/span&gt;&lt;br style=&quot;color: rgb(0, 0, 0);&quot;&gt;&lt;span style=&quot;color: rgb(0, 0, 0);&quot;&gt;MEMORY - 16GB&lt;/span&gt;&lt;br style=&quot;color: rgb(0, 0, 0);&quot;&gt;&lt;span style=&quot;color: rgb(0, 0, 0);&quot;&gt;SSD-50&lt;/span&gt;&lt;/span&gt;" style="html=1;whiteSpace=wrap;fillColor=#d5e8d4;strokeColor=#82b366;" vertex="1" parent="1">
          <mxGeometry x="150" y="310" width="240" height="180" as="geometry" />
        </mxCell>
        <mxCell id="2Zoo_7kJSfG-MeWrc9BH-4" value="&lt;font style=&quot;font-size: 15px;&quot;&gt;&lt;font style=&quot;color: rgb(255, 102, 102);&quot;&gt;&lt;b&gt;PROD&lt;/b&gt;&lt;/font&gt;&lt;br&gt;orcatec.com&lt;br&gt;&lt;/font&gt;&lt;span style=&quot;color: rgb(51, 51, 255); font-size: 15px;&quot;&gt;$168.00&lt;br&gt;&lt;br&gt;&lt;span style=&quot;color: rgb(0, 0, 0);&quot;&gt;CPU - 8&lt;/span&gt;&lt;br style=&quot;color: rgb(0, 0, 0);&quot;&gt;&lt;span style=&quot;color: rgb(0, 0, 0);&quot;&gt;MEMORY - 16GB&lt;/span&gt;&lt;br style=&quot;color: rgb(0, 0, 0);&quot;&gt;&lt;span style=&quot;color: rgb(0, 0, 0);&quot;&gt;SSD-50&lt;/span&gt;&lt;/span&gt;" style="html=1;whiteSpace=wrap;fillColor=#d5e8d4;strokeColor=#82b366;" vertex="1" parent="1">
          <mxGeometry x="480" y="310" width="230" height="180" as="geometry" />
        </mxCell>
        <mxCell id="2Zoo_7kJSfG-MeWrc9BH-5" value="&lt;font&gt;&lt;font style=&quot;font-size: 15px;&quot;&gt;&lt;font style=&quot;color: rgb(0, 0, 0);&quot;&gt;pelias.orcatec.com&lt;/font&gt;&lt;br&gt;&lt;/font&gt;&lt;span style=&quot;font-size: 15px;&quot;&gt;&lt;font style=&quot;color: light-dark(rgb(51, 51, 255), rgb(237, 237, 237));&quot;&gt;$84.00&lt;/font&gt;&lt;br&gt;&lt;br&gt;&lt;font style=&quot;color: rgb(0, 0, 0);&quot;&gt;CPU - 2&lt;br&gt;MEMORY - 16GB&lt;br&gt;SSD-50&lt;/font&gt;&lt;/span&gt;&lt;/font&gt;" style="html=1;whiteSpace=wrap;fillColor=#d5e8d4;strokeColor=#82b366;" vertex="1" parent="1">
          <mxGeometry x="320" y="32.5" width="180" height="175" as="geometry" />
        </mxCell>
        <mxCell id="2Zoo_7kJSfG-MeWrc9BH-7" value="&lt;font style=&quot;font-size: 15px;&quot;&gt;pdf-server&lt;br&gt;&lt;/font&gt;&lt;span style=&quot;color: rgb(51, 51, 255); font-size: 15px;&quot;&gt;$28.00&lt;br&gt;&lt;br&gt;&lt;span style=&quot;color: rgb(0, 0, 0);&quot;&gt;CPU - 2&lt;/span&gt;&lt;br style=&quot;color: rgb(0, 0, 0);&quot;&gt;&lt;span style=&quot;color: rgb(0, 0, 0);&quot;&gt;MEMORY - 4GB&lt;/span&gt;&lt;br style=&quot;color: rgb(0, 0, 0);&quot;&gt;&lt;span style=&quot;color: rgb(0, 0, 0);&quot;&gt;SSD-50&lt;/span&gt;&lt;/span&gt;" style="html=1;whiteSpace=wrap;fillColor=#ffe6cc;strokeColor=#d79b00;" vertex="1" parent="1">
          <mxGeometry x="25" y="550" width="195" height="150" as="geometry" />
        </mxCell>
        <mxCell id="2Zoo_7kJSfG-MeWrc9BH-8" value="&lt;font style=&quot;font-size: 15px;&quot;&gt;code-push-server&lt;br&gt;&lt;/font&gt;&lt;span style=&quot;color: rgb(51, 51, 255); font-size: 15px;&quot;&gt;$14.00&lt;br&gt;&lt;br&gt;&lt;span style=&quot;color: rgb(0, 0, 0);&quot;&gt;CPU - 1&lt;/span&gt;&lt;br style=&quot;color: rgb(0, 0, 0);&quot;&gt;&lt;span style=&quot;color: rgb(0, 0, 0);&quot;&gt;MEMORY - 2GB&lt;/span&gt;&lt;br style=&quot;color: rgb(0, 0, 0);&quot;&gt;&lt;span style=&quot;color: rgb(0, 0, 0);&quot;&gt;SSD-50&lt;/span&gt;&lt;/span&gt;" style="html=1;whiteSpace=wrap;fillColor=#ffe6cc;strokeColor=#d79b00;" vertex="1" parent="1">
          <mxGeometry x="285" y="550" width="195" height="150" as="geometry" />
        </mxCell>
      </root>
    </mxGraphModel>
  </diagram>
</mxfile>
